<svg width="46" height="46" viewBox="0 0 46 46" fill="none" xmlns="http://www.w3.org/2000/svg">
<path d="M22.9167 10.4167C26.2319 10.4167 29.4113 11.7336 31.7555 14.0778C34.0997 16.422 35.4167 19.6015 35.4167 22.9167C35.4167 27.5417 32.8958 31.5833 29.1667 33.75V37.5C29.1667 38.0525 28.9472 38.5824 28.5565 38.9731C28.1658 39.3638 27.6359 39.5833 27.0833 39.5833H18.75C18.1975 39.5833 17.6676 39.3638 17.2769 38.9731C16.8862 38.5824 16.6667 38.0525 16.6667 37.5V33.75C12.9375 31.5833 10.4167 27.5417 10.4167 22.9167C10.4167 19.6015 11.7336 16.422 14.0778 14.0778C16.422 11.7336 19.6015 10.4167 22.9167 10.4167M27.0833 41.6667V43.75C27.0833 44.3025 26.8638 44.8324 26.4731 45.2231C26.0824 45.6138 25.5525 45.8333 25 45.8333H20.8333C20.2808 45.8333 19.7509 45.6138 19.3602 45.2231C18.9695 44.8324 18.75 44.3025 18.75 43.75V41.6667H27.0833ZM39.5833 20.8333H45.8333V25H39.5833V20.8333ZM0 20.8333H6.25V25H0V20.8333ZM25 0V6.25H20.8333V0H25ZM8.16667 5.20833L12.6042 9.66667L9.64583 12.6042L5.20833 8.1875L8.16667 5.20833ZM33.2292 9.64583L37.6458 5.20833L40.625 8.1875L36.1875 12.6042L33.2292 9.64583V9.64583Z" fill="black"/>
</svg>
